# xmcd CD database file
#
# Track frame offsets:
#	183
#	14748
#	27800
#	40040
#	53300
#	67158
#	80520
#	96590
#	109213
#	122570
#	135020
#	148513
#	162088
#	175833
#	189248
#	201700
#	215588
#	229023
#	242345
#	257025
#	270475
#	282843
#	296268
#
# Disc length: 4130 seconds
#
# Revision: 1
# Processed by: cddbd v1.5.2PL0 Copyright (c) Steve Scherf et al.
# Submitted via: CDex 1.97
#
DISCID=43102017
DTITLE=Bumble Bee Slim (Amos Easton) - 1934-1937
DYEAR=1990
DGENRE=Blues
TTITLE0=Burned Down Mill
TTITLE1=You Can't Take it, Baby
TTITLE2=Bleeding Heart Blues
TTITLE3=Policy Dream Blues
TTITLE4=Right From Wrong
TTITLE5=Hay Lawdy Mama
TTITLE6=Steady Roll Mama Blues
TTITLE7=When the Sun Goes Down
TTITLE8=Cold Blooded Murder No 2
TTITLE9=How Long How Long Blues
TTITLE10=When Somebody Loses
TTITLE11=Ramblin' with That Woman
TTITLE12=New Orleans Stop Time
TTITLE13=When the Music Sounds Good
TTITLE14=New Bricks in My Pillow
TTITLE15=Ant Time at Night
TTITLE16=Slave Man Blues
TTITLE17=Green Country Gal
TTITLE18=My Big Moments
TTITLE19=Big Six
TTITLE20=Rough Treatment
TTITLE21=I'm Having So Much Trouble
TTITLE22=Going Back to Florida
EXTD=YEAR: 1990
EXTT0=
EXTT1=
EXTT2=
EXTT3=
EXTT4=
EXTT5=
EXTT6=
EXTT7=
EXTT8=
EXTT9=
EXTT10=
EXTT11=
EXTT12=
EXTT13=
EXTT14=
EXTT15=
EXTT16=
EXTT17=
EXTT18=
EXTT19=
EXTT20=
EXTT21=
EXTT22=
PLAYORDER=
